<svg width="893" height="349" viewBox="0 0 893 349" fill="none" xmlns="http://www.w3.org/2000/svg">
<path fill-rule="evenodd" clip-rule="evenodd" d="M862.663 291.538C842.443 289.957 832.114 279.521 833.361 264.5L803.436 286.531C820.395 287.058 834.666 295.226 833.361 311.567L862.663 291.538Z" fill="url(#paint0_linear_6137_2447)"/>
<path fill-rule="evenodd" clip-rule="evenodd" d="M81.8505 66.0383C61.6301 64.4569 60.6784 54.0213 61.9252 39L32 62.0326C48.959 62.5597 63.2298 69.2251 61.9252 85.5659L81.8505 66.0383Z" fill="url(#paint1_linear_6137_2447)"/>
<path d="M833.361 303.555C833.361 296.918 840.06 291.538 848.324 291.538H877.888C886.151 291.538 892.85 296.918 892.85 303.555V335.601C892.85 342.237 886.151 347.618 877.888 347.618H848.324C840.06 347.618 833.361 342.237 833.361 335.601V303.555Z" fill="url(#paint2_linear_6137_2447)"/>
<path d="M61.9247 82.0611L61.9246 270.508C61.9246 279.358 70.8566 286.531 81.8748 286.531H123.851C134.869 286.531 143.801 293.705 143.801 302.554V332.477C143.801 341.326 152.733 348.5 163.751 348.5H724.351C735.369 348.5 744.301 341.326 744.301 332.477V302.554C744.301 293.705 753.233 286.531 764.251 286.531H813.411C824.429 286.531 833.361 279.358 833.361 270.509V82.0611C833.361 73.212 824.429 66.0384 813.411 66.0384H408.358C401.299 66.0384 395.577 61.4428 395.577 55.7738C395.577 50.1048 389.855 45.5092 382.796 45.5092H341.649C334.591 45.5092 328.869 50.1048 328.869 55.7738C328.869 61.4428 323.147 66.0384 316.088 66.0384L81.8748 66.0384C70.8567 66.0384 61.9247 73.212 61.9247 82.0611Z" fill="url(#paint3_linear_6137_2447)"/>
<rect width="64" height="64" rx="16" fill="#23313C"/>
<defs>
<linearGradient id="paint0_linear_6137_2447" x1="-246.569" y1="8.95717" x2="48.7395" y2="-404.007" gradientUnits="userSpaceOnUse">
<stop stop-color="#1B2128"/>
<stop offset="0.929043" stop-color="#3B6078"/>
</linearGradient>
<linearGradient id="paint1_linear_6137_2447" x1="-246.569" y1="8.95717" x2="48.7395" y2="-404.007" gradientUnits="userSpaceOnUse">
<stop stop-color="#1B2128"/>
<stop offset="0.929043" stop-color="#3B6078"/>
</linearGradient>
<linearGradient id="paint2_linear_6137_2447" x1="-246.569" y1="8.95717" x2="48.7395" y2="-404.007" gradientUnits="userSpaceOnUse">
<stop stop-color="#1B2128"/>
<stop offset="0.929043" stop-color="#3B6078"/>
</linearGradient>
<linearGradient id="paint3_linear_6137_2447" x1="-246.569" y1="8.95717" x2="48.7395" y2="-404.007" gradientUnits="userSpaceOnUse">
<stop stop-color="#1B2128"/>
<stop offset="0.929043" stop-color="#3B6078"/>
</linearGradient>
</defs>
</svg>
