<svg width="16" height="18" viewBox="0 0 16 18" fill="none" xmlns="http://www.w3.org/2000/svg">
<path d="M11.3328 1.5V4.83333M4.6661 1.5V4.83333M1.33276 8.16667H14.6661M1.33276 4.83333C1.33276 4.39131 1.50836 3.96738 1.82092 3.65482C2.13348 3.34226 2.5574 3.16667 2.99943 3.16667H12.9994C13.4415 3.16667 13.8654 3.34226 14.1779 3.65482C14.4905 3.96738 14.6661 4.39131 14.6661 4.83333V14.8333C14.6661 15.2754 14.4905 15.6993 14.1779 16.0118C13.8654 16.3244 13.4415 16.5 12.9994 16.5H2.99943C2.5574 16.5 2.13348 16.3244 1.82092 16.0118C1.50836 15.6993 1.33276 15.2754 1.33276 14.8333V4.83333Z" stroke="#F3F6FF" stroke-width="1.5" stroke-linecap="round" stroke-linejoin="round"/>
</svg>
