<svg width="548" height="167" viewBox="0 0 548 167" fill="none" xmlns="http://www.w3.org/2000/svg">
<mask id="mask0_10062_418" style="mask-type:alpha" maskUnits="userSpaceOnUse" x="0" y="0" width="548" height="167">
<rect width="548" height="167" fill="#D9D9D9"/>
</mask>
<g mask="url(#mask0_10062_418)">
<path d="M484 135.423V83C484 74.1634 476.837 67 468 67H175C170.582 67 167 63.4183 167 59C167 54.5817 163.418 51 159 51H123.5C119.082 51 115.5 54.5817 115.5 59C115.5 63.4183 111.918 67 107.5 67H46C37.1635 67 30 74.1634 30 83V127.5C30 136.337 22.8365 143.5 14 143.5H-454C-462.837 143.5 -470 150.664 -470 159.5V835C-470 843.837 -462.837 851 -454 851H958C966.837 851 974 843.837 974 835V167.423C974 158.586 966.837 151.423 958 151.423H500C491.163 151.423 484 144.259 484 135.423Z" fill="url(#paint0_linear_10062_418)"/>
<path fill-rule="evenodd" clip-rule="evenodd" d="M460 67C476.217 65.4209 485 56 484 41L508 64C494.399 64.5264 482.954 71.1824 484 87.5L460 67Z" fill="url(#paint1_linear_10062_418)"/>
<path d="M548 12C548 5.37258 542.627 0 536 0H496C489.373 0 484 5.37258 484 12V52C484 58.6274 489.373 64 496 64H536C542.627 64 548 58.6274 548 52V12Z" fill="url(#paint2_linear_10062_418)"/>
</g>
<defs>
<linearGradient id="paint0_linear_10062_418" x1="-381" y1="584.5" x2="695.445" y2="-114.369" gradientUnits="userSpaceOnUse">
<stop stop-color="#1B2228"/>
<stop offset="1" stop-color="#354857"/>
</linearGradient>
<linearGradient id="paint1_linear_10062_418" x1="-381" y1="584.5" x2="695.445" y2="-114.369" gradientUnits="userSpaceOnUse">
<stop stop-color="#1B2228"/>
<stop offset="1" stop-color="#354857"/>
</linearGradient>
<linearGradient id="paint2_linear_10062_418" x1="-381" y1="584.5" x2="695.445" y2="-114.369" gradientUnits="userSpaceOnUse">
<stop stop-color="#1B2228"/>
<stop offset="1" stop-color="#354857"/>
</linearGradient>
</defs>
</svg>
