<svg width="66" height="78" viewBox="0 0 66 78" fill="none" xmlns="http://www.w3.org/2000/svg">
<path d="M1 73V65C1 60.7565 2.68571 56.6869 5.68629 53.6863C8.68687 50.6857 12.7565 49 17 49H19M9 17C9 21.2435 10.6857 25.3131 13.6863 28.3137C16.6869 31.3143 20.7565 33 25 33C29.2435 33 33.3131 31.3143 36.3137 28.3137C39.3143 25.3131 41 21.2435 41 17C41 12.7565 39.3143 8.68687 36.3137 5.68629C33.3131 2.68571 29.2435 1 25 1C20.7565 1 16.6869 2.68571 13.6863 5.68629C10.6857 8.68687 9 12.7565 9 17ZM48.2 72.2679L39.512 76.8199C39.2542 76.9541 38.9641 77.014 38.6742 76.9929C38.3844 76.9718 38.106 76.8705 37.8704 76.7004C37.6347 76.5303 37.451 76.298 37.3396 76.0295C37.2283 75.761 37.1938 75.4669 37.24 75.1799L38.9 65.5359L31.872 58.7079C31.6622 58.5051 31.5137 58.2474 31.4434 57.9643C31.373 57.6811 31.3837 57.3839 31.4743 57.1065C31.5648 56.8291 31.7314 56.5828 31.9553 56.3956C32.1791 56.2084 32.451 56.0879 32.74 56.0479L42.452 54.6399L46.796 45.8679C46.9259 45.6066 47.1262 45.3868 47.3742 45.2331C47.6222 45.0795 47.9082 44.998 48.2 44.998C48.4918 44.998 48.7778 45.0795 49.0258 45.2331C49.2739 45.3868 49.4741 45.6066 49.604 45.8679L53.948 54.6399L63.66 56.0479C63.9482 56.0894 64.219 56.2106 64.4418 56.398C64.6647 56.5853 64.8306 56.8313 64.9209 57.1081C65.0112 57.3848 65.0223 57.6813 64.9529 57.9641C64.8834 58.2468 64.7363 58.5045 64.528 58.7079L57.5 65.5359L59.156 75.1759C59.2057 75.4634 59.1738 75.759 59.0639 76.0293C58.954 76.2995 58.7706 76.5335 58.5344 76.7047C58.2982 76.876 58.0187 76.9775 57.7277 76.9979C57.4366 77.0182 57.1457 76.9566 56.888 76.8199L48.2 72.2679Z" stroke="#57C8FF" stroke-width="1.5" stroke-linecap="round" stroke-linejoin="round"/>
</svg>
