<svg width="58" height="74" viewBox="0 0 58 74" fill="none" xmlns="http://www.w3.org/2000/svg">
<path d="M37 21H27C25.4087 21 23.8826 21.6321 22.7574 22.7574C21.6321 23.8826 21 25.4087 21 27C21 28.5913 21.6321 30.1174 22.7574 31.2426C23.8826 32.3679 25.4087 33 27 33H31C32.5913 33 34.1174 33.6321 35.2426 34.7574C36.3679 35.8826 37 37.4087 37 39C37 40.5913 36.3679 42.1174 35.2426 43.2426C34.1174 44.3679 32.5913 45 31 45H21M29 45V51M29 15V21M1 73V9C1 6.87827 1.84285 4.84344 3.34315 3.34315C4.84344 1.84285 6.87827 1 9 1H49C51.1217 1 53.1566 1.84285 54.6569 3.34315C56.1571 4.84344 57 6.87827 57 9V73L45 65L37 73L29 65L21 73L13 65L1 73Z" stroke="#57C8FF" stroke-width="1.5" stroke-linecap="round" stroke-linejoin="round"/>
</svg>
