<svg width="74" height="74" viewBox="0 0 74 74" fill="none" xmlns="http://www.w3.org/2000/svg">
<path d="M21 73V69C21 66.8783 21.8429 64.8434 23.3431 63.3431C24.8434 61.8429 26.8783 61 29 61H45C47.1217 61 49.1566 61.8429 50.6569 63.3431C52.1571 64.8434 53 66.8783 53 69V73M57 29H65C67.1217 29 69.1566 29.8429 70.6569 31.3431C72.1571 32.8434 73 34.8783 73 37V41M1 41V37C1 34.8783 1.84285 32.8434 3.34315 31.3431C4.84344 29.8429 6.87827 29 9 29H17M29 41C29 43.1217 29.8429 45.1566 31.3431 46.6569C32.8434 48.1571 34.8783 49 37 49C39.1217 49 41.1566 48.1571 42.6569 46.6569C44.1571 45.1566 45 43.1217 45 41C45 38.8783 44.1571 36.8434 42.6569 35.3431C41.1566 33.8429 39.1217 33 37 33C34.8783 33 32.8434 33.8429 31.3431 35.3431C29.8429 36.8434 29 38.8783 29 41ZM49 9C49 11.1217 49.8429 13.1566 51.3431 14.6569C52.8434 16.1571 54.8783 17 57 17C59.1217 17 61.1566 16.1571 62.6569 14.6569C64.1571 13.1566 65 11.1217 65 9C65 6.87827 64.1571 4.84344 62.6569 3.34315C61.1566 1.84285 59.1217 1 57 1C54.8783 1 52.8434 1.84285 51.3431 3.34315C49.8429 4.84344 49 6.87827 49 9ZM9 9C9 11.1217 9.84285 13.1566 11.3431 14.6569C12.8434 16.1571 14.8783 17 17 17C19.1217 17 21.1566 16.1571 22.6569 14.6569C24.1571 13.1566 25 11.1217 25 9C25 6.87827 24.1571 4.84344 22.6569 3.34315C21.1566 1.84285 19.1217 1 17 1C14.8783 1 12.8434 1.84285 11.3431 3.34315C9.84285 4.84344 9 6.87827 9 9Z" stroke="#57C8FF" stroke-width="1.5" stroke-linecap="round" stroke-linejoin="round"/>
</svg>
