<svg width="74" height="58" viewBox="0 0 74 58" fill="none" xmlns="http://www.w3.org/2000/svg">
<path d="M57 17V9C57 6.87827 56.1571 4.84344 54.6569 3.34315C53.1566 1.84285 51.1217 1 49 1H9C6.87827 1 4.84344 1.84285 3.34315 3.34315C1.84285 4.84344 1 6.87827 1 9V33C1 35.1217 1.84285 37.1566 3.34315 38.6569C4.84344 40.1571 6.87827 41 9 41H17M17 25C17 22.8783 17.8429 20.8434 19.3431 19.3431C20.8434 17.8429 22.8783 17 25 17H65C67.1217 17 69.1566 17.8429 70.6569 19.3431C72.1571 20.8434 73 22.8783 73 25V49C73 51.1217 72.1571 53.1566 70.6569 54.6569C69.1566 56.1571 67.1217 57 65 57H25C22.8783 57 20.8434 56.1571 19.3431 54.6569C17.8429 53.1566 17 51.1217 17 49V25ZM37 37C37 39.1217 37.8429 41.1566 39.3431 42.6569C40.8434 44.1571 42.8783 45 45 45C47.1217 45 49.1566 44.1571 50.6569 42.6569C52.1571 41.1566 53 39.1217 53 37C53 34.8783 52.1571 32.8434 50.6569 31.3431C49.1566 29.8429 47.1217 29 45 29C42.8783 29 40.8434 29.8429 39.3431 31.3431C37.8429 32.8434 37 34.8783 37 37Z" stroke="#57C8FF" stroke-width="1.5" stroke-linecap="round" stroke-linejoin="round"/>
</svg>
