<svg width="58" height="82" viewBox="0 0 58 82" fill="none" xmlns="http://www.w3.org/2000/svg">
<path d="M9 81V77C9 75.9391 9.42143 74.9217 10.1716 74.1716C10.9217 73.4214 11.9391 73 13 73H45C46.0609 73 47.0783 73.4214 47.8284 74.1716C48.5786 74.9217 49 75.9391 49 77V81M49 1V5C49 6.06087 48.5786 7.07828 47.8284 7.82843C47.0783 8.57857 46.0609 9 45 9H13C11.9391 9 10.9217 8.57857 10.1716 7.82843C9.42143 7.07828 9 6.06087 9 5V1M57 25V57C57 58.0609 56.5786 59.0783 55.8284 59.8284C55.0783 60.5786 54.0609 61 53 61H5C3.93913 61 2.92172 60.5786 2.17157 59.8284C1.42143 59.0783 1 58.0609 1 57V25C1 23.9391 1.42143 22.9217 2.17157 22.1716C2.92172 21.4214 3.93913 21 5 21H53C54.0609 21 55.0783 21.4214 55.8284 22.1716C56.5786 22.9217 57 23.9391 57 25Z" stroke="#57C8FF" stroke-width="1.5" stroke-linecap="round" stroke-linejoin="round"/>
</svg>
