<svg width="66" height="66" viewBox="0 0 66 66" fill="none" xmlns="http://www.w3.org/2000/svg">
<path d="M41 53H65M53 41V65M1 5C1 3.93913 1.42143 2.92172 2.17157 2.17157C2.92172 1.42143 3.93913 1 5 1H21C22.0609 1 23.0783 1.42143 23.8284 2.17157C24.5786 2.92172 25 3.93913 25 5V21C25 22.0609 24.5786 23.0783 23.8284 23.8284C23.0783 24.5786 22.0609 25 21 25H5C3.93913 25 2.92172 24.5786 2.17157 23.8284C1.42143 23.0783 1 22.0609 1 21V5ZM41 5C41 3.93913 41.4214 2.92172 42.1716 2.17157C42.9217 1.42143 43.9391 1 45 1H61C62.0609 1 63.0783 1.42143 63.8284 2.17157C64.5786 2.92172 65 3.93913 65 5V21C65 22.0609 64.5786 23.0783 63.8284 23.8284C63.0783 24.5786 62.0609 25 61 25H45C43.9391 25 42.9217 24.5786 42.1716 23.8284C41.4214 23.0783 41 22.0609 41 21V5ZM1 45C1 43.9391 1.42143 42.9217 2.17157 42.1716C2.92172 41.4214 3.93913 41 5 41H21C22.0609 41 23.0783 41.4214 23.8284 42.1716C24.5786 42.9217 25 43.9391 25 45V61C25 62.0609 24.5786 63.0783 23.8284 63.8284C23.0783 64.5786 22.0609 65 21 65H5C3.93913 65 2.92172 64.5786 2.17157 63.8284C1.42143 63.0783 1 62.0609 1 61V45Z" stroke="#57C8FF" stroke-width="1.5" stroke-linecap="round" stroke-linejoin="round"/>
</svg>
