<svg width="377" height="284" viewBox="0 0 377 284" fill="none" xmlns="http://www.w3.org/2000/svg">
<path d="M37 44C37 37.3726 42.3726 32 49 32H138C141.866 32 145 28.866 145 25C145 21.134 148.134 18 152 18H195C198.866 18 202 21.134 202 25C202 28.866 205.134 32 209 32H291C297.627 32 303 37.3726 303 44V78C303 84.0751 307.925 89 314 89C320.075 89 325 93.9249 325 100V135C325 141.627 319.627 147 313 147H287C280.373 147 275 152.373 275 159V167C275 173.627 280.373 179 287 179H331C337.627 179 343 184.373 343 191V240C343 246.627 337.627 252 331 252H12C5.37258 252 0 246.627 0 240V191C0 184.373 5.37258 179 12 179H51C57.6274 179 63 173.627 63 167V159C63 152.373 57.6274 147 51 147H32C25.3726 147 20 141.627 20 135V97.5C20 92.8056 23.8056 89 28.5 89C33.1944 89 37 85.1944 37 80.5V44Z" fill="url(#paint0_linear_10034_395)"/>
<path fill-rule="evenodd" clip-rule="evenodd" d="M23 32C32.6382 32.9509 37.5943 36.9677 37 46L50 32C41.9163 31.683 34.3782 27.8257 35 18L23 32Z" fill="#212C36"/>
<rect x="5" width="32" height="32" rx="6" fill="#212C36"/>
<path fill-rule="evenodd" clip-rule="evenodd" d="M357 252C347.362 251.049 342.406 247.032 343 238L330 252C338.084 252.317 345.622 256.174 345 266L357 252Z" fill="#356781"/>
<rect x="377" y="284" width="32" height="32" rx="6" transform="rotate(180 377 284)" fill="#356781"/>
<defs>
<linearGradient id="paint0_linear_10034_395" x1="-2.49975" y1="43.5002" x2="91.2011" y2="-88.9327" gradientUnits="userSpaceOnUse">
<stop stop-color="#1B2128"/>
<stop offset="0.929043" stop-color="#3B6078"/>
</linearGradient>
</defs>
</svg>
